<?xml version="1.0" encoding="utf-8"?>
<svg   viewBox="0 0 1440 1024" fill="none" xmlns="http://www.w3.org/2000/svg">
<defs>
      <linearGradient id="logo-gradient" x1="50%" y1="0%" x2="50%" y2="100%">
        <!--Use two colors and alternate them as shown below-->
        <stop offset="0%" stop-color="color-1">
          <animate attributeName="stop-color" values="#570000; #280000; #570000" dur="4s" repeatCount="indefinite"></animate>
        </stop>
        <stop offset="50%" stop-color="color-2">
          <animate attributeName="stop-color" values="#280000; #570000; #280000" dur="6s" repeatCount="indefinite"></animate>
        </stop>
        <stop offset="100%" stop-color="color-3">
          <animate attributeName="stop-color" values="#570000; #280000; #570000" dur="4s" repeatCount="indefinite"></animate>
        </stop>

      </linearGradient>
    </defs>
    <g fill="url('#logo-gradient')"> 
<path d="M897.469 226.875C897.469 228.5 897.323 229.979 897.031 231.312C896.76 232.625 896.323 233.833 895.719 234.938C895.115 236.042 894.333 237.062 893.375 238C892.417 238.938 891.26 239.833 889.906 240.688L897.344 253.938L883.281 256.688L878.469 243.375L874.594 243.5L874.031 256.5H860.594C860.698 251.75 860.792 247.021 860.875 242.312C860.979 237.604 861.094 232.875 861.219 228.125C861.26 225.729 861.302 223.354 861.344 221C861.385 218.646 861.469 216.271 861.594 213.875C863.052 213.333 864.49 212.885 865.906 212.531C867.323 212.177 868.74 211.906 870.156 211.719C871.594 211.51 873.042 211.375 874.5 211.312C875.979 211.229 877.49 211.188 879.031 211.188C881.406 211.188 883.698 211.521 885.906 212.188C888.135 212.833 890.104 213.812 891.812 215.125C893.521 216.438 894.885 218.073 895.906 220.031C896.948 221.99 897.469 224.271 897.469 226.875ZM883.469 227.875C883.469 227 883.344 226.198 883.094 225.469C882.865 224.74 882.51 224.115 882.031 223.594C881.573 223.052 880.99 222.635 880.281 222.344C879.594 222.031 878.781 221.875 877.844 221.875C877.427 221.875 877.021 221.906 876.625 221.969C876.229 222.01 875.844 222.083 875.469 222.188L874.969 233.812H875.719C876.615 233.812 877.521 233.698 878.438 233.469C879.375 233.24 880.208 232.885 880.938 232.406C881.688 231.927 882.292 231.312 882.75 230.562C883.229 229.812 883.469 228.917 883.469 227.875Z" />
<path d="M858.969 213C858.031 220.333 857.229 227.635 856.562 234.906C855.896 242.156 855.26 249.458 854.656 256.812L841.844 257.75L842.406 252.938C841.99 253.417 841.5 253.833 840.938 254.188C840.396 254.542 839.812 254.833 839.188 255.062C838.562 255.271 837.917 255.427 837.25 255.531C836.583 255.615 835.948 255.646 835.344 255.625C833.927 255.604 832.594 255.333 831.344 254.812C830.094 254.271 828.948 253.562 827.906 252.688C826.865 251.792 825.927 250.76 825.094 249.594C824.26 248.406 823.552 247.167 822.969 245.875C822.406 244.562 821.969 243.229 821.656 241.875C821.365 240.521 821.219 239.208 821.219 237.938C821.219 236.062 821.25 234.125 821.312 232.125C821.396 230.104 821.531 228.083 821.719 226.062C821.906 224.042 822.146 222.042 822.438 220.062C822.75 218.083 823.135 216.188 823.594 214.375C826.135 214.5 828.688 214.615 831.25 214.719C833.812 214.823 836.365 214.854 838.906 214.812C838.427 216.625 837.948 218.448 837.469 220.281C837.01 222.094 836.594 223.927 836.219 225.781C835.844 227.615 835.542 229.458 835.312 231.312C835.083 233.167 834.969 235.042 834.969 236.938C834.969 237.375 834.99 238 835.031 238.812C835.073 239.625 835.177 240.427 835.344 241.219C835.531 242.01 835.802 242.708 836.156 243.312C836.531 243.896 837.052 244.188 837.719 244.188C838.51 244.188 839.219 243.854 839.844 243.188C840.469 242.5 841.021 241.583 841.5 240.438C841.979 239.292 842.385 237.969 842.719 236.469C843.073 234.969 843.365 233.406 843.594 231.781C843.844 230.135 844.042 228.479 844.188 226.812C844.333 225.146 844.438 223.583 844.5 222.125C844.583 220.646 844.635 219.323 844.656 218.156C844.698 216.99 844.719 216.083 844.719 215.438C844.719 215.021 844.708 214.615 844.688 214.219C844.667 213.823 844.635 213.417 844.594 213C845.948 213.042 847.292 213.073 848.625 213.094C849.958 213.115 851.302 213.125 852.656 213.125C853.698 213.125 854.74 213.125 855.781 213.125C856.844 213.104 857.906 213.062 858.969 213Z" fill="#248F8F"/>
<path d="M822.188 254.312L806.688 256.312L804.812 249.25H797.688L796.125 256.312L780.188 254.75L792.625 213.125L810 212.25L822.188 254.312ZM803.688 239.688L801.312 228.812L799 239.688H803.688Z"  />
<path d="M783.094 212.25L768.031 233.062L780.719 255.188L766.219 257.75L756.719 244.25L756.219 258.375L743.219 258.875L744.219 211L758.781 211.812L757.656 225.938L767.344 211L783.094 212.25Z" fill="#A92D8E"/>
<path d="M728 241.188C728 243.542 727.969 245.875 727.906 248.188C727.865 250.479 727.792 252.792 727.688 255.125L709.688 254.812C710.312 251.125 710.854 247.448 711.312 243.781C711.771 240.094 712 236.375 712 232.625C712 232.354 711.99 231.917 711.969 231.312C711.948 230.708 711.906 230.031 711.844 229.281C711.781 228.51 711.688 227.729 711.562 226.938C711.458 226.125 711.302 225.385 711.094 224.719C710.906 224.052 710.667 223.51 710.375 223.094C710.104 222.656 709.771 222.438 709.375 222.438C708.667 222.438 708.062 222.646 707.562 223.062C707.083 223.479 706.677 224.021 706.344 224.688C706.031 225.333 705.781 226.062 705.594 226.875C705.406 227.688 705.26 228.5 705.156 229.312C705.073 230.125 705.01 230.896 704.969 231.625C704.948 232.333 704.938 232.917 704.938 233.375C704.833 237.062 704.75 240.729 704.688 244.375C704.625 248 704.542 251.667 704.438 255.375L688.5 256.062C688.917 248.708 689.312 241.396 689.688 234.125C690.083 226.854 690.396 219.542 690.625 212.188L705.375 211.438L705.25 216.438C705.833 215.729 706.458 215.062 707.125 214.438C707.812 213.812 708.542 213.281 709.312 212.844C710.083 212.385 710.896 212.031 711.75 211.781C712.625 211.51 713.542 211.375 714.5 211.375C716.271 211.375 717.823 211.667 719.156 212.25C720.49 212.833 721.635 213.625 722.594 214.625C723.552 215.625 724.354 216.812 725 218.188C725.646 219.542 726.167 220.99 726.562 222.531C726.958 224.073 727.26 225.688 727.469 227.375C727.677 229.042 727.812 230.688 727.875 232.312C727.958 233.938 728 235.51 728 237.031C728 238.552 728 239.938 728 241.188Z"  />
<path d="M687.156 231.75C687.156 233.562 687.031 235.375 686.781 237.188C683.219 237.417 679.677 237.792 676.156 238.312C672.635 238.812 669.115 239.312 665.594 239.812C666.135 241.312 666.979 242.51 668.125 243.406C669.292 244.302 670.677 244.75 672.281 244.75C673.115 244.75 674.021 244.594 675 244.281C676 243.969 676.99 243.583 677.969 243.125C678.948 242.646 679.885 242.135 680.781 241.594C681.677 241.052 682.448 240.562 683.094 240.125L681.594 254.312C680.781 254.938 679.896 255.469 678.938 255.906C678 256.344 677.021 256.698 676 256.969C674.979 257.24 673.948 257.438 672.906 257.562C671.865 257.688 670.844 257.75 669.844 257.75C667.781 257.75 665.896 257.469 664.188 256.906C662.479 256.344 660.927 255.562 659.531 254.562C658.156 253.542 656.948 252.344 655.906 250.969C654.865 249.594 654 248.094 653.312 246.469C652.625 244.844 652.104 243.125 651.75 241.312C651.396 239.5 651.219 237.667 651.219 235.812C651.219 233.875 651.396 231.938 651.75 230C652.104 228.062 652.635 226.198 653.344 224.406C654.073 222.615 654.979 220.958 656.062 219.438C657.167 217.896 658.448 216.552 659.906 215.406C661.365 214.26 663.01 213.365 664.844 212.719C666.698 212.073 668.74 211.75 670.969 211.75C672.823 211.75 674.51 212.01 676.031 212.531C677.573 213.031 678.938 213.74 680.125 214.656C681.333 215.552 682.375 216.625 683.25 217.875C684.146 219.125 684.875 220.5 685.438 222C686.021 223.479 686.448 225.052 686.719 226.719C687.01 228.365 687.156 230.042 687.156 231.75ZM674.656 230.125C674.656 229.542 674.594 228.948 674.469 228.344C674.344 227.719 674.135 227.156 673.844 226.656C673.573 226.156 673.208 225.75 672.75 225.438C672.292 225.104 671.719 224.938 671.031 224.938C670.198 224.938 669.458 225.167 668.812 225.625C668.188 226.062 667.646 226.625 667.188 227.312C666.729 227.979 666.354 228.708 666.062 229.5C665.771 230.292 665.552 231.021 665.406 231.688L674.656 230.812V230.125Z" fill="#46BD92"/>
<path d="M650.219 231.75C650.219 233.562 650.094 235.375 649.844 237.188C646.281 237.417 642.74 237.792 639.219 238.312C635.698 238.812 632.177 239.312 628.656 239.812C629.198 241.312 630.042 242.51 631.188 243.406C632.354 244.302 633.74 244.75 635.344 244.75C636.177 244.75 637.083 244.594 638.062 244.281C639.062 243.969 640.052 243.583 641.031 243.125C642.01 242.646 642.948 242.135 643.844 241.594C644.74 241.052 645.51 240.562 646.156 240.125L644.656 254.312C643.844 254.938 642.958 255.469 642 255.906C641.062 256.344 640.083 256.698 639.062 256.969C638.042 257.24 637.01 257.438 635.969 257.562C634.927 257.688 633.906 257.75 632.906 257.75C630.844 257.75 628.958 257.469 627.25 256.906C625.542 256.344 623.99 255.562 622.594 254.562C621.219 253.542 620.01 252.344 618.969 250.969C617.927 249.594 617.062 248.094 616.375 246.469C615.688 244.844 615.167 243.125 614.812 241.312C614.458 239.5 614.281 237.667 614.281 235.812C614.281 233.875 614.458 231.938 614.812 230C615.167 228.062 615.698 226.198 616.406 224.406C617.135 222.615 618.042 220.958 619.125 219.438C620.229 217.896 621.51 216.552 622.969 215.406C624.427 214.26 626.073 213.365 627.906 212.719C629.76 212.073 631.802 211.75 634.031 211.75C635.885 211.75 637.573 212.01 639.094 212.531C640.635 213.031 642 213.74 643.188 214.656C644.396 215.552 645.438 216.625 646.312 217.875C647.208 219.125 647.938 220.5 648.5 222C649.083 223.479 649.51 225.052 649.781 226.719C650.073 228.365 650.219 230.042 650.219 231.75ZM637.719 230.125C637.719 229.542 637.656 228.948 637.531 228.344C637.406 227.719 637.198 227.156 636.906 226.656C636.635 226.156 636.271 225.75 635.812 225.438C635.354 225.104 634.781 224.938 634.094 224.938C633.26 224.938 632.521 225.167 631.875 225.625C631.25 226.062 630.708 226.625 630.25 227.312C629.792 227.979 629.417 228.708 629.125 229.5C628.833 230.292 628.615 231.021 628.469 231.688L637.719 230.812V230.125Z" fill="#1889AD"/>
<path d="M613.875 240.438L612.562 254.312L586.25 256.375L587.25 211.75H603.5L601.188 240.438H613.875Z"  />
<g filter="url(#filter0_d_0_1)">
<path d="M584.438 241C584.438 243.854 583.938 246.323 582.938 248.406C581.958 250.469 580.604 252.177 578.875 253.531C577.167 254.865 575.156 255.854 572.844 256.5C570.552 257.125 568.083 257.438 565.438 257.438C564.417 257.438 563.292 257.302 562.062 257.031C560.854 256.76 559.625 256.427 558.375 256.031C557.125 255.615 555.917 255.177 554.75 254.719C553.604 254.24 552.583 253.792 551.688 253.375L553.062 241.125C554.833 242.188 556.792 243 558.938 243.562C561.104 244.104 563.229 244.375 565.312 244.375C565.708 244.375 566.188 244.365 566.75 244.344C567.312 244.302 567.844 244.208 568.344 244.062C568.865 243.896 569.302 243.656 569.656 243.344C570.01 243.031 570.188 242.583 570.188 242C570.188 241.604 570.062 241.271 569.812 241C569.562 240.708 569.24 240.479 568.844 240.312C568.448 240.125 568 239.99 567.5 239.906C567 239.802 566.51 239.729 566.031 239.688C565.552 239.646 565.104 239.625 564.688 239.625C564.271 239.625 563.938 239.625 563.688 239.625C561.896 239.625 560.26 239.344 558.781 238.781C557.323 238.219 556.062 237.427 555 236.406C553.958 235.365 553.146 234.115 552.562 232.656C551.979 231.177 551.688 229.542 551.688 227.75C551.688 225.292 552.177 223.094 553.156 221.156C554.156 219.198 555.479 217.542 557.125 216.188C558.792 214.812 560.698 213.76 562.844 213.031C564.99 212.302 567.208 211.938 569.5 211.938C570.521 211.938 571.573 211.979 572.656 212.062C573.74 212.125 574.812 212.25 575.875 212.438C576.958 212.625 578.01 212.865 579.031 213.156C580.052 213.448 581.021 213.812 581.938 214.25L580.75 226.938C579.333 226.458 577.844 226.062 576.281 225.75C574.74 225.417 573.229 225.25 571.75 225.25C571.479 225.25 571.125 225.26 570.688 225.281C570.271 225.281 569.823 225.312 569.344 225.375C568.885 225.417 568.417 225.49 567.938 225.594C567.458 225.698 567.031 225.844 566.656 226.031C566.281 226.198 565.979 226.427 565.75 226.719C565.521 227.01 565.417 227.354 565.438 227.75C565.458 228.208 565.625 228.562 565.938 228.812C566.271 229.062 566.688 229.25 567.188 229.375C567.708 229.479 568.271 229.531 568.875 229.531C569.5 229.531 570.115 229.521 570.719 229.5C571.323 229.458 571.885 229.427 572.406 229.406C572.927 229.365 573.354 229.354 573.688 229.375C575.354 229.479 576.854 229.833 578.188 230.438C579.521 231.042 580.646 231.844 581.562 232.844C582.5 233.844 583.208 235.042 583.688 236.438C584.188 237.812 584.438 239.333 584.438 241Z" fill="#B42494"/>
<path d="M579.183 253.925L579.183 253.925C580.976 252.521 582.378 250.751 583.389 248.622C584.428 246.457 584.938 243.911 584.938 241C584.938 239.285 584.68 237.707 584.159 236.271C583.659 234.816 582.917 233.558 581.929 232.504C580.964 231.451 579.783 230.611 578.394 229.982C576.998 229.35 575.437 228.983 573.719 228.876C573.355 228.853 572.905 228.865 572.376 228.907C571.855 228.928 571.294 228.959 570.693 229.001C570.097 229.021 569.491 229.031 568.875 229.031C568.304 229.031 567.779 228.982 567.297 228.887C566.856 228.776 566.51 228.615 566.244 228.417C566.064 228.271 565.952 228.062 565.937 227.727L565.937 227.724C565.922 227.44 565.994 227.217 566.143 227.028C566.317 226.807 566.551 226.625 566.859 226.488L566.87 226.484L566.88 226.478C567.212 226.312 567.599 226.179 568.044 226.082C568.504 225.982 568.952 225.913 569.389 225.873L569.399 225.872L569.408 225.871C569.869 225.811 570.296 225.781 570.688 225.781H570.699L570.711 225.781C571.145 225.76 571.49 225.75 571.75 225.75C573.191 225.75 574.666 225.912 576.176 226.239L576.176 226.239L576.183 226.24C577.726 226.549 579.195 226.939 580.59 227.411L581.189 227.614L581.248 226.984L582.435 214.297L582.468 213.949L582.153 213.799C581.21 213.349 580.215 212.974 579.169 212.675C578.13 212.379 577.061 212.135 575.961 211.945C574.881 211.754 573.791 211.627 572.69 211.564C571.596 211.48 570.533 211.438 569.5 211.438C567.154 211.438 564.881 211.811 562.683 212.558C560.483 213.305 558.523 214.386 556.807 215.802C555.107 217.201 553.741 218.912 552.711 220.929L552.71 220.931C551.691 222.947 551.188 225.224 551.188 227.75C551.188 229.597 551.488 231.295 552.097 232.84L552.098 232.842C552.705 234.359 553.554 235.667 554.646 236.76L554.646 236.76L554.654 236.767C555.767 237.836 557.085 238.663 558.601 239.248L558.604 239.249C560.146 239.835 561.843 240.125 563.688 240.125H563.689H563.69H563.692H563.693H563.695H563.696H563.698H563.699H563.701H563.702H563.704H563.705H563.707H563.708H563.71H563.711H563.713H563.714H563.716H563.717H563.719H563.72H563.722H563.723H563.725H563.726H563.728H563.729H563.731H563.732H563.734H563.735H563.737H563.738H563.74H563.741H563.743H563.745H563.746H563.748H563.749H563.751H563.752H563.754H563.755H563.757H563.758H563.76H563.762H563.763H563.765H563.766H563.768H563.769H563.771H563.773H563.774H563.776H563.777H563.779H563.78H563.782H563.784H563.785H563.787H563.788H563.79H563.792H563.793H563.795H563.796H563.798H563.8H563.801H563.803H563.804H563.806H563.808H563.809H563.811H563.812H563.814H563.816H563.817H563.819H563.821H563.822H563.824H563.825H563.827H563.829H563.83H563.832H563.834H563.835H563.837H563.839H563.84H563.842H563.844H563.845H563.847H563.848H563.85H563.852H563.853H563.855H563.857H563.858H563.86H563.862H563.864H563.865H563.867H563.869H563.87H563.872H563.874H563.875H563.877H563.879H563.88H563.882H563.884H563.886H563.887H563.889H563.891H563.892H563.894H563.896H563.897H563.899H563.901H563.903H563.904H563.906H563.908H563.91H563.911H563.913H563.915H563.916H563.918H563.92H563.922H563.923H563.925H563.927H563.929H563.93H563.932H563.934H563.936H563.937H563.939H563.941H563.943H563.945H563.946H563.948H563.95H563.952H563.953H563.955H563.957H563.959H563.961H563.962H563.964H563.966H563.968H563.969H563.971H563.973H563.975H563.977H563.978H563.98H563.982H563.984H563.986H563.988H563.989H563.991H563.993H563.995H563.997H563.998H564H564.002H564.004H564.006H564.008H564.009H564.011H564.013H564.015H564.017H564.019H564.02H564.022H564.024H564.026H564.028H564.03H564.032H564.033H564.035H564.037H564.039H564.041H564.043H564.045H564.047H564.048H564.05H564.052H564.054H564.056H564.058H564.06H564.062H564.063H564.065H564.067H564.069H564.071H564.073H564.075H564.077H564.079H564.081H564.082H564.084H564.086H564.088H564.09H564.092H564.094H564.096H564.098H564.1H564.102H564.104H564.106H564.107H564.109H564.111H564.113H564.115H564.117H564.119H564.121H564.123H564.125H564.127H564.129H564.131H564.133H564.135H564.137H564.139H564.141H564.143H564.145H564.147H564.149H564.151H564.153H564.155H564.156H564.158H564.16H564.162H564.164H564.166H564.168H564.17H564.172H564.174H564.176H564.178H564.18H564.182H564.184H564.186H564.188H564.19H564.193H564.195H564.197H564.199H564.201H564.203H564.205H564.207H564.209H564.211H564.213H564.215H564.217H564.219H564.221H564.223H564.225H564.227H564.229H564.231H564.233H564.235H564.237H564.239H564.241H564.244H564.246H564.248H564.25H564.252H564.254H564.256H564.258H564.26H564.262H564.264H564.266H564.268H564.271H564.273H564.275H564.277H564.279H564.281H564.283H564.285H564.287H564.289H564.292H564.294H564.296H564.298H564.3H564.302H564.304H564.306H564.309H564.311H564.313H564.315H564.317H564.319H564.321H564.323H564.326H564.328H564.33H564.332H564.334H564.336H564.338H564.341H564.343H564.345H564.347H564.349H564.351H564.354H564.356H564.358H564.36H564.362H564.364H564.367H564.369H564.371H564.373H564.375H564.377H564.38H564.382H564.384H564.386H564.388H564.391H564.393H564.395H564.397H564.399H564.402H564.404H564.406H564.408H564.41H564.413H564.415H564.417H564.419H564.422H564.424H564.426H564.428H564.43H564.433H564.435H564.437H564.439H564.442H564.444H564.446H564.448H564.451H564.453H564.455H564.457H564.46H564.462H564.464H564.466H564.469H564.471H564.473H564.475H564.478H564.48H564.482H564.485H564.487H564.489H564.491H564.494H564.496H564.498H564.501H564.503H564.505H564.507H564.51H564.512H564.514H564.517H564.519H564.521H564.524H564.526H564.528H564.531H564.533H564.535H564.537H564.54H564.542H564.544H564.547H564.549H564.551H564.554H564.556H564.558H564.561H564.563H564.565H564.568H564.57H564.573H564.575H564.577H564.58H564.582H564.584H564.587H564.589H564.591H564.594H564.596H564.598H564.601H564.603H564.606H564.608H564.61H564.613H564.615H564.618H564.62H564.622H564.625H564.627H564.629H564.632H564.634H564.637H564.639H564.641H564.644H564.646H564.649H564.651H564.654H564.656H564.658H564.661H564.663H564.666H564.668H564.67H564.673H564.675H564.678H564.68H564.683H564.685H564.688C565.088 240.125 565.521 240.145 565.988 240.186C566.446 240.225 566.916 240.295 567.398 240.396L567.408 240.398L567.418 240.399C567.879 240.476 568.282 240.6 568.63 240.764L568.64 240.769L568.65 240.773C568.983 240.913 569.239 241.099 569.433 241.325L569.439 241.332L569.445 241.339C569.603 241.51 569.688 241.72 569.688 242C569.688 242.476 569.547 242.773 569.325 242.969C569.032 243.228 568.66 243.436 568.197 243.584C567.738 243.718 567.247 243.805 566.722 243.844C566.168 243.865 565.698 243.875 565.312 243.875C563.274 243.875 561.19 243.61 559.061 243.078C556.959 242.527 555.046 241.732 553.32 240.696L552.652 240.296L552.566 241.069L551.191 253.319L551.15 253.677L551.477 253.828C552.38 254.248 553.407 254.699 554.557 255.18L554.557 255.18L554.567 255.184C555.742 255.646 556.959 256.086 558.217 256.506L558.217 256.506L558.224 256.508C559.487 256.908 560.73 257.245 561.953 257.519L561.955 257.52C563.212 257.796 564.373 257.938 565.438 257.938C568.123 257.938 570.636 257.62 572.975 256.982L572.978 256.982C575.347 256.32 577.418 255.303 579.183 253.925Z" stroke="black"/>
</g>
<path d="M551.75 254.312L536.25 256.312L534.375 249.25H527.25L525.688 256.312L509.75 254.75L522.188 213.125L539.562 212.25L551.75 254.312ZM533.25 239.688L530.875 228.812L528.562 239.688H533.25Z" fill="black"/>
<path d="M510.875 231.25C510.875 232.479 510.875 233.698 510.875 234.906C510.875 236.115 510.812 237.333 510.688 238.562C510.458 241.167 509.896 243.635 509 245.969C508.104 248.281 506.885 250.312 505.344 252.062C503.823 253.812 501.969 255.198 499.781 256.219C497.594 257.24 495.083 257.75 492.25 257.75C491.146 257.75 489.99 257.656 488.781 257.469C487.594 257.281 486.406 257 485.219 256.625C484.052 256.25 482.927 255.792 481.844 255.25C480.781 254.688 479.833 254.042 479 253.312L480.938 240.375C482.167 241.562 483.531 242.531 485.031 243.281C486.531 244.01 488.167 244.375 489.938 244.375C491.083 244.375 492.052 244.208 492.844 243.875C493.635 243.542 494.292 243.083 494.812 242.5C495.333 241.917 495.74 241.24 496.031 240.469C496.344 239.677 496.562 238.844 496.688 237.969C496.833 237.073 496.917 236.156 496.938 235.219C496.979 234.281 497 233.354 497 232.438C497 229.125 496.833 225.833 496.5 222.562C496.167 219.271 495.875 215.979 495.625 212.688L509.938 211.75C510.562 218.25 510.875 224.75 510.875 231.25Z" fill="#3A76CE"/>
</g>
  </svg>
